<svg xmlns="http://www.w3.org/2000/svg" viewBox="0 0 120 120"><defs><style>.cls-1{fill:#78266a;}.cls-2{fill:#acc827;}</style></defs><g id="Layer_2" data-name="Layer 2"><g id="Layer_1-2" data-name="Layer 1"><rect class="cls-1" width="120" height="120"/><path class="cls-2" d="M97.08,29.18a21.86,21.86,0,0,0-9.22-8.26c-14.72-7.73-37.58-4-50.71,8.24a52.47,52.47,0,0,0-17.36,43.4A31.09,31.09,0,0,0,45,101.9a77.72,77.72,0,0,0,34.22-1.54,33.62,33.62,0,0,0,10.36-4C89,90.7,88.45,85.21,87.87,79.64a16.51,16.51,0,0,0-5.78,1.68C73,84.13,63.78,85.45,54.41,82.88A13.44,13.44,0,0,1,44.27,69.71a12.27,12.27,0,0,1,1.6-.2A142.35,142.35,0,0,0,67,68.42a56.75,56.75,0,0,0,21.24-6.26,22.21,22.21,0,0,0,12.09-21A21.93,21.93,0,0,0,97.08,29.18Zm-21.4,15.6A7.13,7.13,0,0,1,72.5,48a28.25,28.25,0,0,1-10.1,2.84A79,79,0,0,1,47,51.55,20.35,20.35,0,0,1,70.43,35a7.48,7.48,0,0,1,5.86,5.32A7.08,7.08,0,0,1,75.68,44.78Z"/></g></g></svg>