<svg width="33" height="33" viewBox="0 0 33 33" fill="none" xmlns="http://www.w3.org/2000/svg">
<path d="M22.0013 0H10.0006C7.34828 0 4.80459 1.05363 2.92911 2.92911C1.05363 4.80459 0 7.34828 0 10.0006L0 15.3343C0 17.9866 1.05363 20.5303 2.92911 22.4058C4.80459 24.2812 7.34828 25.3349 10.0006 25.3349H12.0007V31.3352C12 31.4677 12.0386 31.5973 12.1118 31.7077C12.1851 31.818 12.2895 31.9041 12.4118 31.9548C12.5341 32.0056 12.6687 32.0188 12.7986 31.9928C12.9284 31.9667 13.0475 31.9026 13.1408 31.8086L19.6079 25.3349H22.0013C24.6537 25.3349 27.1974 24.2812 29.0728 22.4058C30.9483 20.5303 32.0019 17.9866 32.0019 15.3343V10.0006C32.0019 7.34828 30.9483 4.80459 29.0728 2.92911C27.1974 1.05363 24.6537 0 22.0013 0V0ZM30.6685 15.3343C30.6685 17.6329 29.7554 19.8375 28.13 21.4629C26.5045 23.0883 24.3 24.0015 22.0013 24.0015H19.3345C19.2468 24.0009 19.1598 24.0178 19.0786 24.0509C18.9973 24.0841 18.9234 24.133 18.8611 24.1948L13.3341 29.7285V24.6682C13.3341 24.4913 13.2639 24.3218 13.1389 24.1967C13.0138 24.0717 12.8443 24.0015 12.6674 24.0015H10.0006C7.70192 24.0015 5.49739 23.0883 3.87198 21.4629C2.24656 19.8375 1.33341 17.6329 1.33341 15.3343V10.0006C1.33341 7.70192 2.24656 5.49739 3.87198 3.87198C5.49739 2.24656 7.70192 1.33341 10.0006 1.33341H22.0013C24.3 1.33341 26.5045 2.24656 28.13 3.87198C29.7554 5.49739 30.6685 7.70192 30.6685 10.0006V15.3343Z" fill="white"/>
<path d="M17.334 7.33377H8.00012V8.66718H17.334V7.33377Z" fill="white"/>
<path d="M24.0011 12.0007H8.00012V13.3341H24.0011V12.0007Z" fill="white"/>
<path d="M24.0011 16.6677H8.00012V18.0011H24.0011V16.6677Z" fill="white"/>
<path d="M20.0009 7.33377H18.6675V8.66718H20.0009V7.33377Z" fill="white"/>
</svg>
