<svg width="36" height="36" viewBox="0 0 36 36" fill="none" xmlns="http://www.w3.org/2000/svg">
<path d="M1.92635 6.34291C2.47741 6.34291 2.92412 5.8962 2.92412 5.34515C2.92412 4.7941 2.47741 4.34738 1.92635 4.34738C1.3753 4.34738 0.928589 4.7941 0.928589 5.34515C0.928589 5.8962 1.3753 6.34291 1.92635 6.34291Z" fill="white"/>
<path d="M29.6631 12.7179C31.099 12.4138 32.3307 11.5685 33.1306 10.3379C33.9304 9.10737 34.2028 7.63855 33.8975 6.20304C33.3622 3.67962 31.1041 1.8479 28.5286 1.8479C28.1457 1.8479 27.7608 1.88866 27.3834 1.9686C25.9475 2.27272 24.7158 3.11843 23.9159 4.34819C23.1184 5.57483 22.8453 7.03777 23.1459 8.46937C23.1467 8.47289 23.1467 8.47642 23.1474 8.47956C23.1474 8.48034 23.1474 8.48191 23.1482 8.48269C23.6839 11.0061 25.9436 12.8382 28.5199 12.8382C28.902 12.8382 29.2865 12.7975 29.6631 12.7179ZM25.5733 9.26256H27.4936C28.0379 9.26256 28.4788 8.82168 28.4788 8.27812C28.4788 7.73378 28.0379 7.2929 27.4936 7.2929H24.9999C25.0078 6.63334 25.1982 5.98828 25.567 5.4216C26.0808 4.63232 26.8704 4.09072 27.7922 3.89477C28.0355 3.84304 28.2828 3.81718 28.5286 3.81718C29.196 3.81718 29.8281 4.01156 30.3693 4.34741H29.3566C28.8123 4.34741 28.3714 4.78829 28.3714 5.33224C28.3714 5.87619 28.8123 6.31708 29.3566 6.31708H31.871C31.8789 6.31708 31.8855 6.31512 31.8942 6.31473C31.9239 6.41231 31.9494 6.51185 31.9706 6.61296C32.0525 6.99702 32.0662 7.3846 32.0211 7.76356H31.3424C30.7988 7.76356 30.3579 8.20445 30.3579 8.74879C30.3579 9.22024 30.6902 9.6137 31.1327 9.70972C30.6389 10.2568 29.9899 10.6362 29.2551 10.7921C29.0125 10.8435 28.7653 10.8693 28.5203 10.8693C27.3101 10.8686 26.2109 10.2368 25.5733 9.26256Z" fill="white"/>
<path d="M4.79313 27.2913C4.81625 27.3305 4.84211 27.3654 4.87033 27.4007C6.9654 30.3665 10.4164 32.3092 14.3158 32.3092C20.6896 32.3092 25.8751 27.1236 25.8751 20.749C25.8751 14.3748 20.6896 9.19006 14.3158 9.19006C7.94201 9.19006 2.75684 14.3752 2.75684 20.749C2.75684 23.1764 3.51006 25.4298 4.79313 27.2913ZM5.776 23.1678C5.8144 23.2215 5.85477 23.2748 5.89631 23.3277C5.73015 23.5644 5.53969 23.845 5.35824 24.1667C4.95184 23.1043 4.72689 21.9525 4.72689 20.749C4.72689 20.4535 4.74218 20.162 4.76804 19.8735C5.14779 19.7219 5.5389 19.6063 5.93824 19.5314C5.24224 20.5731 4.9828 22.0505 5.776 23.1678ZM17.9949 29.6051C17.074 29.5988 16.8612 29.433 16.6409 29.2559C16.5237 29.1626 16.47 29.0517 16.4681 29.0231C16.4794 28.9557 16.6143 28.766 16.6954 28.652L16.8126 28.4835C17.3691 27.6613 17.6888 26.6619 17.7143 25.6689C17.719 25.4737 17.6661 25.2809 17.5611 25.1163C16.6578 23.6941 14.9456 24.3462 13.813 24.7781C13.6927 24.824 13.5559 24.8761 13.4129 24.9282C13.5927 24.6374 13.7166 24.289 13.7013 23.8673C13.6668 22.9703 12.9736 21.9576 11.9127 21.8863C11.83 21.88 11.752 21.8742 11.6768 21.8655C12.1788 21.8103 12.6773 21.6124 13.0715 21.1444C13.7613 20.3222 13.6845 19.0933 12.8666 17.856L12.8168 17.7804C12.5558 17.3877 12.1992 16.8489 12.2756 16.5941C12.3101 16.4801 12.4602 16.3218 12.7212 16.1215C13.269 15.703 13.8769 15.3714 14.5266 15.1375L14.5803 15.1183C15.4782 14.7969 16.9815 14.2581 17.0955 12.7751C17.1331 12.2688 16.9783 11.8405 16.78 11.4811C17.7598 11.7417 18.6776 12.1551 19.508 12.6924L19.035 13.3559C18.5412 14.048 18.0482 14.7397 17.5583 15.4286C16.7785 16.5158 17.0258 17.3928 17.5223 17.8564C17.8092 18.1214 18.1423 18.2154 18.3943 18.266C18.7517 18.3396 19.1193 18.3855 19.5049 18.4047C19.5178 18.8303 19.4551 19.2657 19.3219 19.6721C19.2168 19.995 19.285 20.3489 19.5025 20.6091C19.9693 21.1687 20.8091 21.2651 21.5455 20.8427C21.6192 20.8 21.6917 20.7529 21.7646 20.7063C21.7877 20.691 21.8143 20.6742 21.841 20.6573C21.8876 20.6918 21.9397 20.733 21.9809 20.7659C22.2717 20.9963 22.7118 21.3439 23.3333 21.3474C23.3364 21.3482 23.3404 21.3482 23.3439 21.3482C23.532 21.3482 23.7166 21.3122 23.8925 21.2495C23.6974 25.0203 21.3154 28.2197 17.9949 29.6051ZM23.6072 18.3741C23.5085 18.5822 23.4411 18.7844 23.3815 18.9659C23.3447 19.0807 23.3094 19.1885 23.2722 19.2767C23.2475 19.2583 23.224 19.239 23.2032 19.2222C22.8995 18.9827 22.4339 18.6167 21.7849 18.6442C21.6748 18.6481 21.5706 18.6641 21.4726 18.6869C21.4789 18.4917 21.4749 18.2965 21.4604 18.1037C21.3985 17.2184 20.9761 16.812 20.6198 16.6196C20.2859 16.4468 19.9563 16.4444 19.7596 16.4429C19.5974 16.4405 19.4359 16.4299 19.276 16.4123C19.729 15.7747 20.1836 15.1379 20.6379 14.5006L21.0474 13.9269C22.2685 15.1316 23.1691 16.6604 23.6072 18.3741ZM14.2766 11.1605C14.4228 11.505 14.6234 11.7981 14.7994 12.0462C14.9342 12.2367 15.1384 12.5255 15.1317 12.6262C15.1157 12.8343 14.2115 13.158 13.9149 13.2646L13.8604 13.2846C13.0186 13.5875 12.2333 14.0163 11.5251 14.5579C11.1081 14.8765 10.6022 15.3307 10.3906 16.0232C10.0469 17.1679 10.699 18.1511 11.1744 18.8699L11.2241 18.944C11.5702 19.4667 11.6 19.8339 11.5631 19.8778C11.5494 19.8947 11.393 20.033 10.3302 19.6972C9.7992 19.5294 9.21723 19.6964 8.81005 20.1326C8.32724 20.6507 8.18929 21.4247 8.45813 22.1042C8.73599 22.8077 9.52291 23.6757 11.6897 23.8438C11.7042 23.8646 11.7187 23.892 11.7265 23.9144C11.6662 24.0053 11.4832 24.1699 11.3586 24.2824C11.0102 24.597 10.5763 24.9882 10.378 25.5881C10.2561 25.9561 10.3612 26.3606 10.6469 26.6224C11.7767 27.6609 13.2945 27.0832 14.5145 26.6184C14.8452 26.4923 15.3383 26.3045 15.671 26.2336C15.5812 26.6423 15.4155 27.035 15.1842 27.3771L15.0894 27.5127C14.875 27.8149 14.6078 28.1915 14.5247 28.7108C14.4365 29.2618 14.5984 29.8375 14.9526 30.316C14.7422 30.3305 14.5302 30.3399 14.3166 30.3399C11.1775 30.3399 8.38602 28.8236 6.63621 26.4852C6.71733 25.5952 7.14842 24.9729 7.53639 24.4195L7.59008 24.3423C7.68179 24.2114 7.95886 23.8133 7.95298 23.2791C7.94005 22.7387 7.64377 22.3621 7.46624 22.1379C7.43803 22.1011 7.40903 22.065 7.38277 22.0293C7.0959 21.6245 7.32673 20.8972 7.70413 20.4555L7.74684 20.4065C7.98629 20.1302 8.38759 19.6678 8.34096 18.9941C8.29824 18.3643 7.85422 17.8149 7.21034 17.5966C6.79023 17.4536 6.39363 17.4763 6.02093 17.5237C5.75601 17.559 5.49501 17.6111 5.23636 17.6707C6.51747 13.901 10.0829 11.177 14.2766 11.1605Z" fill="white"/>
<path d="M7.27456 3.23912C7.39174 3.23912 7.51127 3.21796 7.62648 3.17368L7.6692 3.15722C8.17827 2.96637 8.43614 2.39851 8.24568 1.88944C8.05443 1.38036 7.48579 1.12289 6.97829 1.31335L6.92068 1.3349C6.41318 1.52928 6.16001 2.09871 6.35439 2.60661C6.50527 2.99811 6.87796 3.23912 7.27456 3.23912Z" fill="white"/>
<path d="M10.2955 2.35737C10.3645 2.35737 10.4334 2.34992 10.5028 2.33542C11.0362 2.23118 11.3846 1.71388 11.2795 1.18051C11.1753 0.646355 10.6564 0.298744 10.1246 0.402988L10.058 0.416704C9.52619 0.529178 9.20445 1.04726 9.31692 1.57946C9.4145 2.04229 9.83696 2.35737 10.2955 2.35737Z" fill="white"/>
<path d="M4.46231 4.57431C4.62848 4.57431 4.79738 4.53199 4.95218 4.44303L4.98981 4.42187C5.46361 4.15538 5.63291 3.55539 5.36642 3.08119C5.09993 2.60661 4.49994 2.43809 4.02613 2.70419L3.97088 2.73554C3.49943 3.00673 3.3364 3.60868 3.60798 4.08013C3.79021 4.39679 4.12176 4.57431 4.46231 4.57431Z" fill="white"/>
<path d="M19.5733 2.6552C20.0028 2.6552 20.3971 2.37265 20.5201 1.9396C20.6686 1.41681 20.3653 0.871688 19.8421 0.72316L19.7755 0.704741C19.2488 0.564834 18.7284 0.881877 18.5885 1.40741C18.4486 1.93294 18.7789 2.47728 19.3041 2.61758C19.3942 2.64306 19.4843 2.6552 19.5733 2.6552Z" fill="white"/>
<path d="M16.4112 2.06421C16.4464 2.06813 16.4817 2.06969 16.5162 2.06969C17.0139 2.06969 17.4407 1.69465 17.4944 1.1895C17.5516 0.648289 17.1597 0.163906 16.6196 0.105906L16.5683 0.100419C16.0318 0.0420266 15.5427 0.432355 15.4828 0.972778C15.4248 1.51359 15.8151 1.99915 16.3555 2.05833L16.4112 2.06421Z" fill="white"/>
<path d="M13.3923 1.97095L13.455 1.96782C13.9986 1.93921 14.4148 1.47559 14.3858 0.932428C14.3576 0.389261 13.9041 -0.0261486 13.35 0.00128405L13.3065 0.00363541C12.7637 0.027541 12.3421 0.486451 12.366 1.03001C12.3891 1.55907 12.8253 1.97173 13.3488 1.97173C13.3633 1.97213 13.3778 1.97173 13.3923 1.97095Z" fill="white"/>
<path d="M22.0936 3.62748C22.2261 3.68744 22.3636 3.71605 22.5 3.71605C22.8743 3.71605 23.2325 3.50129 23.3971 3.13761C23.622 2.64225 23.4026 2.05872 22.9072 1.83417L22.8574 1.81183C22.3613 1.58688 21.7789 1.80791 21.5548 2.30326C21.3306 2.79862 21.5509 3.38176 22.0462 3.60593L22.0936 3.62748Z" fill="white"/>
<path d="M35.0686 19.9154C35.0447 19.3719 34.6019 18.9663 34.0438 18.9902C33.5002 19.0133 33.0793 19.4891 33.1025 20.0318C33.1138 20.5691 33.5516 20.9963 34.0861 20.9963C34.0932 20.9963 34.1006 20.9955 34.1077 20.9955C34.6512 20.9841 35.0827 20.5338 35.0714 19.9907L35.0686 19.9154Z" fill="white"/>
<path d="M30.0558 32.7837C30.2259 32.8993 30.4194 32.9554 30.6107 32.9554C30.9254 32.9554 31.2338 32.8053 31.4243 32.5267L31.4517 32.4859C31.7617 32.0387 31.65 31.4258 31.2028 31.1158C30.7565 30.8066 30.142 30.9183 29.8328 31.3655L29.7983 31.4152C29.4914 31.864 29.6071 32.4769 30.0558 32.7837Z" fill="white"/>
<path d="M34.2592 26.5632L34.2807 26.4883C34.4285 25.9655 34.1201 25.4365 33.5965 25.2887C33.0745 25.1418 32.525 25.4604 32.3773 25.9836C32.2174 26.5032 32.509 27.0542 33.0286 27.2145C33.125 27.2443 33.2222 27.258 33.3186 27.258C33.7395 27.2584 34.1291 26.9864 34.2592 26.5632Z" fill="white"/>
<path d="M33.7806 13.4919L33.7548 13.4225C33.5604 12.9142 32.9976 12.6767 32.4893 12.8707C31.9818 13.0643 31.733 13.6498 31.9274 14.1581C32.0712 14.5598 32.4501 14.8098 32.8534 14.8098C32.9643 14.8098 33.0768 14.791 33.1865 14.7514C33.6987 14.5676 33.9644 14.0033 33.7806 13.4919Z" fill="white"/>
<path d="M28.6127 35.4083C28.8745 35.4083 29.1363 35.304 29.3299 35.0983L29.362 35.0646C29.7379 34.6719 29.7241 34.048 29.3307 33.6722C28.9388 33.2971 28.3149 33.3101 27.9391 33.7035L27.8956 33.7486C27.5236 34.1444 27.5421 34.7675 27.9383 35.1402C28.1283 35.3197 28.3709 35.4083 28.6127 35.4083Z" fill="white"/>
<path d="M32.7567 17.0754C32.8555 17.5378 33.2642 17.8529 33.718 17.8529C33.787 17.8529 33.8568 17.8459 33.9261 17.8306C34.4571 17.7165 34.7957 17.1934 34.6817 16.6612L34.6746 16.6275C34.5712 16.0937 34.0539 15.7441 33.5213 15.848C32.9871 15.9514 32.638 16.4683 32.7414 17.0017L32.7567 17.0754Z" fill="white"/>
<path d="M34.9321 23.2771L34.9368 23.2426C35.005 22.703 34.6221 22.21 34.0825 22.1418C33.5421 22.0705 33.0506 22.4557 32.9824 22.9954L32.9742 23.069C32.9162 23.6102 33.3081 24.0946 33.8489 24.153C33.8842 24.1562 33.9194 24.1585 33.9539 24.1585C34.4513 24.1581 34.8784 23.7831 34.9321 23.2771Z" fill="white"/>
<path d="M32.1936 30.2156C32.558 30.2156 32.9084 30.0126 33.0793 29.6631L33.1106 29.5964C33.3403 29.1034 33.1185 28.534 32.6254 28.3051C32.1324 28.0755 31.5395 28.3059 31.3099 28.7989C31.072 29.2872 31.2738 29.8774 31.7629 30.1153C31.9012 30.1835 32.049 30.2156 32.1936 30.2156Z" fill="white"/>
</svg>
