<svg width="36" height="36" viewBox="0 0 36 36" fill="none" xmlns="http://www.w3.org/2000/svg">
<path d="M18 0C14.4399 0 10.9598 1.05568 7.99974 3.03355C5.03966 5.01141 2.73255 7.82262 1.37018 11.1117C0.00779914 14.4008 -0.348661 18.02 0.345873 21.5116C1.04041 25.0033 2.75474 28.2106 5.27208 30.7279C7.78943 33.2452 10.9967 34.9596 14.4884 35.6541C17.98 36.3486 21.5992 35.9922 24.8883 34.6298C28.1774 33.2674 30.9886 30.9603 32.9664 28.0002C34.9443 25.0402 36 21.5601 36 18C36 13.2261 34.1036 8.64773 30.7279 5.27207C27.3523 1.89642 22.7739 0 18 0V0ZM18 34.5C14.7366 34.5 11.5465 33.5323 8.83309 31.7192C6.11969 29.9062 4.00484 27.3292 2.75599 24.3143C1.50715 21.2993 1.18039 17.9817 1.81705 14.781C2.45371 11.5803 4.02518 8.6403 6.33274 6.33274C8.64031 4.02517 11.5803 2.4537 14.781 1.81704C17.9817 1.18039 21.2993 1.50714 24.3143 2.75599C27.3293 4.00483 29.9062 6.11968 31.7192 8.83309C33.5323 11.5465 34.5 14.7366 34.5 18C34.5 22.3761 32.7616 26.5729 29.6673 29.6672C26.5729 32.7616 22.3761 34.5 18 34.5Z" fill="white"/>
<path d="M18.7049 11.7375C18.651 11.5952 18.555 11.4727 18.4297 11.3862C18.3045 11.2998 18.1559 11.2535 18.0037 11.2535C17.8515 11.2535 17.7029 11.2998 17.5777 11.3862C17.4524 11.4727 17.3564 11.5952 17.3024 11.7375L15.0524 17.7375C14.9892 17.9068 14.9892 18.0932 15.0524 18.2625L17.3024 24.2625C17.3564 24.4048 17.4524 24.5273 17.5777 24.6137C17.7029 24.7002 17.8515 24.7465 18.0037 24.7465C18.1559 24.7465 18.3045 24.7002 18.4297 24.6137C18.555 24.5273 18.651 24.4048 18.7049 24.2625L20.9549 18.2625C21.0182 18.0932 21.0182 17.9068 20.9549 17.7375L18.7049 11.7375ZM17.9999 21.8625L16.5524 18L17.9999 14.1375L19.4474 18L17.9999 21.8625Z" fill="white"/>
<path d="M18 3.75C15.1816 3.75 12.4265 4.58575 10.0831 6.15156C7.73973 7.71737 5.91327 9.94291 4.83472 12.5468C3.75617 15.1506 3.47398 18.0158 4.02382 20.78C4.57366 23.5443 5.93084 26.0834 7.92373 28.0763C9.91663 30.0692 12.4557 31.4263 15.22 31.9762C17.9842 32.526 20.8494 32.2438 23.4532 31.1653C26.0571 30.0867 28.2826 28.2603 29.8484 25.9169C31.4142 23.5735 32.25 20.8184 32.25 18C32.25 14.2207 30.7487 10.5961 28.0763 7.92373C25.4039 5.25133 21.7793 3.75 18 3.75ZM18.75 30.7125V27.75H17.25V30.7125C14.1384 30.5256 11.2031 29.2052 8.99895 27.001C6.79477 24.7969 5.47443 21.8616 5.28751 18.75H8.25V17.25H5.28751C5.47443 14.1384 6.79477 11.2031 8.99895 8.99894C11.2031 6.79476 14.1384 5.47442 17.25 5.2875V8.25H18.75V5.2875C21.8616 5.47442 24.7969 6.79476 27.001 8.99894C29.2052 11.2031 30.5256 14.1384 30.7125 17.25H27.75V18.75H30.7125C30.5256 21.8616 29.2052 24.7969 27.001 27.001C24.7969 29.2052 21.8616 30.5256 18.75 30.7125Z" fill="white"/>
</svg>
