<svg width="32" height="41" viewBox="0 0 32 41" fill="none" xmlns="http://www.w3.org/2000/svg">
<path d="M31.7558 6.98106L25.0189 0.244224C24.9402 0.166177 24.8469 0.104429 24.7443 0.0625225C24.6417 0.0206155 24.5319 -0.000626676 24.421 1.40752e-05H2.52631C1.85629 1.40752e-05 1.21372 0.266178 0.73994 0.739954C0.266164 1.21373 0 1.85631 0 2.52633V37.8947C0 38.5647 0.266164 39.2073 0.73994 39.6811C1.21372 40.1549 1.85629 40.421 2.52631 40.421H29.4737C30.1437 40.421 30.7863 40.1549 31.26 39.6811C31.7338 39.2073 32 38.5647 32 37.8947V7.57895C32.0006 7.46813 31.9794 7.35827 31.9375 7.25567C31.8956 7.15307 31.8338 7.05975 31.7558 6.98106ZM25.2631 2.87159L29.1284 6.73685H26.1052C25.8819 6.73685 25.6677 6.64813 25.5098 6.4902C25.3519 6.33228 25.2631 6.11809 25.2631 5.89475V2.87159ZM30.3158 37.8947C30.3158 38.1181 30.227 38.3322 30.0691 38.4902C29.9112 38.6481 29.697 38.7368 29.4737 38.7368H2.52631C2.30297 38.7368 2.08878 38.6481 1.93086 38.4902C1.77293 38.3322 1.68421 38.1181 1.68421 37.8947V2.52633C1.68421 2.30299 1.77293 2.08879 1.93086 1.93087C2.08878 1.77294 2.30297 1.68422 2.52631 1.68422H23.5789V5.89475C23.5789 6.56477 23.8451 7.20734 24.3189 7.68112C24.7926 8.1549 25.4352 8.42106 26.1052 8.42106H30.3158V37.8947Z" fill="white"/>
<path d="M21.0526 16V17.6842H24.0758L18.181 23.5789H10.9474C10.8365 23.5783 10.7267 23.5995 10.6241 23.6414C10.5215 23.6834 10.4282 23.7451 10.3495 23.8232L5.29684 28.8758L6.48421 30.0631L11.2926 25.2632H18.5263C18.6371 25.2638 18.747 25.2425 18.8496 25.2006C18.9522 25.1587 19.0455 25.097 19.1242 25.0189L25.2631 18.8716V21.8947H26.9474V16.8421C26.9474 16.6188 26.8586 16.4046 26.7007 16.2466C26.5428 16.0887 26.3286 16 26.1052 16H21.0526Z" fill="white"/>
</svg>
