<svg width="29" height="34" viewBox="0 0 29 34" fill="none" xmlns="http://www.w3.org/2000/svg">
<path d="M28.7998 5.72405L23.276 0.200249C23.2114 0.136255 23.1349 0.0856259 23.0508 0.0512647C22.9667 0.0169035 22.8766 -0.000513837 22.7857 1.15408e-05H8.97621V1.38096H22.0952V4.83334C22.0952 5.38272 22.3135 5.90959 22.702 6.29806C23.0904 6.68653 23.6173 6.90477 24.1667 6.90477H27.6191V31.0714C27.6191 31.2545 27.5463 31.4302 27.4168 31.5597C27.2873 31.6891 27.1117 31.7619 26.9286 31.7619H6.90479V33.1428H26.9286C27.478 33.1428 28.0048 32.9246 28.3933 32.5361C28.7818 32.1477 29 31.6208 29 31.0714V6.21429C29.0005 6.12342 28.9831 6.03334 28.9487 5.94921C28.9144 5.86509 28.8638 5.78857 28.7998 5.72405ZM24.1667 5.52382C23.9835 5.52382 23.8079 5.45107 23.6784 5.32158C23.5489 5.19209 23.4762 5.01647 23.4762 4.83334V2.35453L26.6455 5.52382H24.1667Z" fill="white"/>
<path d="M6.90477 1.38095C6.90477 1.0147 6.75928 0.66345 6.5003 0.404471C6.24132 0.145493 5.89007 0 5.52382 0L1.38097 0C1.01472 0 0.663466 0.145493 0.404488 0.404471C0.145509 0.66345 1.64709e-05 1.0147 1.64709e-05 1.38095V27.619C-0.000818889 27.74 0.0301348 27.859 0.0897784 27.9643L2.85168 32.7976C2.9119 32.9039 2.99923 32.9922 3.10477 33.0537C3.2103 33.1152 3.33025 33.1476 3.45239 33.1476C3.57454 33.1476 3.69449 33.1152 3.80002 33.0537C3.90555 32.9922 3.99289 32.9039 4.05311 32.7976L6.81501 27.9643C6.87465 27.859 6.90561 27.74 6.90477 27.619V1.38095ZM1.38097 5.5238H2.76192V26.9285H1.38097V5.5238ZM3.45239 31.0714L1.87811 28.3095H5.01977L3.45239 31.0714ZM5.52382 26.9285H4.14287V5.5238H5.52382V26.9285ZM5.52382 4.14285H1.38097V1.38095H5.52382V4.14285Z" fill="white"/>
</svg>
