<svg width="23" height="30" viewBox="0 0 23 30" fill="none" xmlns="http://www.w3.org/2000/svg">
<path d="M22.6966 4.68972L19.6572 0.3167C19.591 0.220557 19.4949 0.140588 19.3787 0.0849508C19.2626 0.0293138 19.1306 0 18.9962 0C18.8618 0 18.7298 0.0293138 18.6136 0.0849508C18.4975 0.140588 18.4014 0.220557 18.3351 0.3167L15.2957 4.68972C15.2301 4.78493 15.196 4.89265 15.1969 5.00208V28.7414C15.1969 29.0727 15.3571 29.3905 15.6421 29.6248C15.9271 29.8592 16.3136 29.9908 16.7166 29.9908H21.2757C21.6788 29.9908 22.0653 29.8592 22.3503 29.6248C22.6353 29.3905 22.7954 29.0727 22.7954 28.7414V5.00208C22.7963 4.89265 22.7623 4.78493 22.6966 4.68972ZM18.9962 1.87849L20.7286 4.37737H17.2637L18.9962 1.87849ZM16.7166 5.6268H18.2363V24.9931H16.7166V5.6268ZM21.2757 28.7414H16.7166V26.2425H21.2757V28.7414ZM21.2757 24.9931H19.756V5.6268H21.2757V24.9931Z" fill="white"/>
<path d="M10.6379 0.00457764H1.51969C1.11665 0.00457764 0.730106 0.136214 0.445108 0.370529C0.16011 0.604844 0 0.922642 0 1.25401V28.7416C0 29.073 0.16011 29.3908 0.445108 29.6251C0.730106 29.8594 1.11665 29.991 1.51969 29.991H10.6379C11.0409 29.991 11.4274 29.8594 11.7124 29.6251C11.9974 29.3908 12.1575 29.073 12.1575 28.7416V1.25401C12.1575 0.922642 11.9974 0.604844 11.7124 0.370529C11.4274 0.136214 11.0409 0.00457764 10.6379 0.00457764V0.00457764ZM10.6379 28.7416H1.51969V26.8674H5.31893V25.618H1.51969V23.1191H6.83862V21.8697H1.51969V19.3708H5.31893V18.1214H1.51969V15.6225H6.83862V14.3731H1.51969V11.8742H5.31893V10.6248H1.51969V8.12591H6.83862V6.87647H1.51969V4.3776H5.31893V3.12817H1.51969V1.25401H10.6379V28.7416Z" fill="white"/>
</svg>
