<svg width="33" height="39" viewBox="0 0 33 39" fill="none" xmlns="http://www.w3.org/2000/svg">
<path d="M33 37.55C33 36.9565 32.5186 36.4751 31.9243 36.4751H22.6196C22.5644 35.7028 22.3077 35.087 21.855 34.6416C20.9701 33.7717 19.6496 33.7944 18.2529 33.8175C18.0154 33.8217 17.7715 33.826 17.5216 33.826H15.4801C15.2302 33.826 14.9863 33.8217 14.7489 33.8175C13.3513 33.7948 12.0317 33.7717 11.1468 34.6407C10.6937 35.087 10.4374 35.7028 10.3822 36.4751H1.07494C0.481447 36.4751 6.10352e-05 36.9565 6.10352e-05 37.55C6.10352e-05 38.1444 0.481447 38.6258 1.07494 38.6258H31.9247C32.5186 38.6258 33 38.1444 33 37.55ZM12.6543 36.1743C12.8965 35.936 13.9021 35.9535 14.7121 35.9672C14.9611 35.9715 15.2178 35.9762 15.4801 35.9762H17.5216C17.7839 35.9762 18.0407 35.9711 18.2897 35.9672C19.0997 35.954 20.1049 35.9364 20.3475 36.1743C20.3975 36.2235 20.4335 36.3331 20.4562 36.4751H12.5456C12.5679 36.3335 12.6038 36.224 12.6543 36.1743Z" fill="white"/>
<path d="M28.3988 16.8397V5.89496C28.3988 5.47048 28.148 5.08495 27.7595 4.91208L16.9379 0.111484C16.6598 -0.011323 16.3427 -0.011323 16.0654 0.111484L5.24005 4.91208C4.85152 5.08495 4.60077 5.47048 4.60077 5.89496V16.8397C4.60077 17.245 4.82884 17.6159 5.1917 17.7991L16.0171 23.2715C16.169 23.3485 16.3355 23.387 16.5019 23.387C16.6684 23.387 16.8344 23.3485 16.9867 23.2715L27.8087 17.7991C28.1703 17.6159 28.3988 17.245 28.3988 16.8397ZM16.5019 2.27023L24.8399 5.96941L16.5019 10.2792L8.16131 5.96941L16.5019 2.27023ZM6.75139 7.66175L15.4262 12.144V20.5642L6.75139 16.1786V7.66175ZM17.5768 20.5637V12.1436L26.2481 7.6626V16.1786L17.5768 20.5637Z" fill="white"/>
<path d="M14.6389 12.7781C14.4065 12.2317 13.7754 11.9784 13.229 12.209L8.10616 14.3853C7.55974 14.6177 7.30556 15.2488 7.53706 15.7952C7.71164 16.2047 8.10873 16.4504 8.52721 16.4504C8.66756 16.4504 8.80963 16.423 8.94656 16.3643L14.0698 14.1881C14.6166 13.9557 14.8712 13.3246 14.6389 12.7781Z" fill="white"/>
<path d="M24.8935 14.3853L19.772 12.209C19.2273 11.9784 18.5953 12.2317 18.3621 12.7781C18.1297 13.3237 18.3847 13.9557 18.9312 14.1881L24.0527 16.3643C24.1896 16.423 24.3325 16.4504 24.4729 16.4504C24.8909 16.4504 25.2885 16.2047 25.4626 15.7952C25.695 15.2492 25.4404 14.6177 24.8935 14.3853Z" fill="white"/>
<path d="M17.5456 24.9839C17.5456 24.3904 17.0642 23.9091 16.4707 23.9091C15.8763 23.9091 15.395 24.3904 15.395 24.9839V25.055C15.395 25.6493 15.8763 26.1307 16.4707 26.1307C17.0642 26.1307 17.5456 25.6493 17.5456 25.055V24.9839Z" fill="white"/>
<path d="M17.5456 28.6151C17.5456 28.0208 17.0642 27.5394 16.4707 27.5394C15.8763 27.5394 15.395 28.0208 15.395 28.6151V28.6861C15.395 29.2796 15.8763 29.761 16.4707 29.761C17.0642 29.761 17.5456 29.2796 17.5456 28.6861V28.6151Z" fill="white"/>
<path d="M16.4711 31.171C15.8768 31.171 15.3954 31.6523 15.3954 32.2458V32.3169C15.3954 32.9112 15.8768 33.3926 16.4711 33.3926C17.0646 33.3926 17.546 32.9112 17.546 32.3169V32.2458C17.5456 31.6523 17.0642 31.171 16.4711 31.171Z" fill="white"/>
<path d="M23.1527 24.0096L23.1078 24.0648C22.7317 24.5244 22.7993 25.2013 23.2593 25.5774C23.4591 25.7405 23.7004 25.8205 23.9396 25.8205C24.2516 25.8205 24.5597 25.6861 24.7719 25.426L24.8168 25.3708C25.1929 24.9112 25.1253 24.2343 24.6653 23.8581C24.2066 23.482 23.5288 23.5492 23.1527 24.0096Z" fill="white"/>
<path d="M18.552 29.6266L18.5071 29.6818C18.131 30.1414 18.1986 30.8183 18.6586 31.1944C18.8584 31.3583 19.0997 31.4375 19.3389 31.4375C19.65 31.4375 19.9581 31.3031 20.1712 31.043L20.2161 30.9878C20.5922 30.5282 20.5246 29.8513 20.0646 29.4752C19.6046 29.099 18.9281 29.1671 18.552 29.6266Z" fill="white"/>
<path d="M20.8554 26.8149L20.8104 26.8693C20.4326 27.328 20.4981 28.0049 20.9559 28.3827C21.1558 28.5483 21.3979 28.6283 21.6388 28.6283C21.9491 28.6283 22.2563 28.4953 22.4694 28.2372L22.5143 28.1829C22.8922 27.7242 22.8267 27.0473 22.368 26.6694C21.9101 26.292 21.2323 26.3571 20.8554 26.8149Z" fill="white"/>
<path d="M25.4535 21.2005L25.4086 21.2557C25.0325 21.7152 25.1001 22.3922 25.5601 22.7683C25.7599 22.9313 26.0012 23.0113 26.2404 23.0113C26.5523 23.0113 26.8604 22.877 27.0727 22.6168L27.1176 22.5616C27.4937 22.1021 27.4261 21.4251 26.9661 21.049C26.5061 20.6729 25.8296 20.7401 25.4535 21.2005Z" fill="white"/>
<path d="M8.19128 23.8774C7.73428 24.2561 7.67053 24.9339 8.04922 25.3909L8.09415 25.4461C8.30724 25.7028 8.61404 25.8355 8.92341 25.8355C9.16475 25.8355 9.40736 25.7546 9.60805 25.5881C10.0659 25.2094 10.1297 24.5317 9.75097 24.0747L9.70518 24.0195C9.32606 23.5625 8.64827 23.4987 8.19128 23.8774Z" fill="white"/>
<path d="M5.88449 21.0734C5.42579 21.4503 5.35946 22.1281 5.73644 22.5868L5.78137 22.642C5.99361 22.9005 6.30212 23.034 6.61278 23.034C6.85283 23.034 7.09416 22.9536 7.29485 22.7901C7.75355 22.4123 7.81988 21.7353 7.4429 21.2766L7.39711 21.2214C7.02056 20.7627 6.34277 20.6977 5.88449 21.0734Z" fill="white"/>
<path d="M10.5045 26.6754C10.0458 27.0533 9.97946 27.7302 10.3564 28.1889L10.4014 28.2441C10.6136 28.503 10.9221 28.6369 11.2328 28.6369C11.4728 28.6369 11.7142 28.5565 11.9148 28.3921C12.3735 28.0152 12.4399 27.3374 12.0629 26.8787L12.0171 26.8235C11.6406 26.3648 10.9632 26.2993 10.5045 26.6754Z" fill="white"/>
<path d="M12.8113 29.4803C12.3543 29.859 12.2905 30.5368 12.6692 30.9938L12.7141 31.0481C12.9272 31.3049 13.234 31.4375 13.5434 31.4375C13.7847 31.4375 14.0274 31.3566 14.228 31.1902C14.6859 30.8115 14.7497 30.1337 14.371 29.6767L14.3252 29.6224C13.9461 29.1654 13.2683 29.1007 12.8113 29.4803Z" fill="white"/>
</svg>
